<svg width="319" height="319" viewBox="0 0 319 319" fill="none" xmlns="http://www.w3.org/2000/svg">
<g clip-path="url(#clip0)">
<path d="M304.693 14.307C290.305 -0.0809764 270.806 -3.69465 257.908 3.81868C221.207 25.1967 144.981 -29.2508 57.8648 57.8655C-29.2515 144.982 25.1966 221.207 3.81858 257.907C-3.69474 270.805 -0.0816978 290.305 14.3063 304.694C28.6956 319.083 48.1951 322.694 61.094 315.181C97.7921 293.804 174.019 348.251 261.134 261.136C348.25 174.02 293.804 97.7935 315.181 61.0935C322.695 48.1952 319.082 28.6957 304.693 14.307ZM151.949 59.5147C115.695 68.5782 68.5805 115.685 59.5152 151.949C58.3831 156.478 54.3178 159.503 49.8511 159.503C49.0511 159.503 48.2374 159.405 47.4256 159.203C42.0849 157.867 38.8375 152.455 40.1721 147.114C51.0281 103.692 103.623 51.0462 147.113 40.1728C152.456 38.8376 157.868 42.085 159.202 47.4263C160.537 52.7677 157.29 58.1795 151.949 59.5147Z" fill="#6C5CE7"/>
</g>
<defs>
<clipPath id="clip0">
<rect width="319" height="319" fill="white"/>
</clipPath>
</defs>
</svg>
