<svg width="654" height="673" viewBox="0 0 654 673" fill="none" xmlns="http://www.w3.org/2000/svg">
<path fill-rule="evenodd" clip-rule="evenodd" d="M111.66 491.687C156.669 540.632 362.019 473.783 431.154 491.687C478.254 503.885 643.331 516.182 578 346.432C370.763 -192.034 -30.9532 336.604 111.66 491.687Z" fill="#6C5CE7"/>
<ellipse cx="297.539" cy="117.383" rx="33.9459" ry="40.3799" fill="white"/>
<path fill-rule="evenodd" clip-rule="evenodd" d="M19.5039 622.938C9.05685 628.177 0.478701 634.472 3.67499 642.296C9.24491 655.931 26.7445 660.959 46.6441 664.978C74.4837 670.602 113.129 671.308 163.13 669.133C246.713 665.498 237.233 657.5 316.552 653.738C370.535 651.178 464.176 665.393 539.294 665.136C585.252 664.978 785.698 609.574 501.148 597.272C216.598 584.971 60.0929 602.586 19.5039 622.938Z" fill="white"/>
<path fill-rule="evenodd" clip-rule="evenodd" d="M19.5039 622.938C9.05685 628.177 0.478701 634.472 3.67499 642.296C9.24491 655.931 240.681 612.003 320 608.242C373.983 605.681 456.274 623.196 531.391 622.938C577.35 622.781 682.296 613.445 501.148 597.272C320 581.1 60.0929 602.586 19.5039 622.938Z" fill="#E7EAEE"/>
<path fill-rule="evenodd" clip-rule="evenodd" d="M168.672 595.366C92.8891 600.506 40.4668 609.63 18.3833 620.704C12.2034 623.802 7.68466 626.747 4.66198 629.925C0.760392 634.025 -0.559476 638.542 1.36066 643.242C4.253 650.322 10.0797 655.545 18.7444 659.516C25.4976 662.61 33.5188 664.851 45.3707 667.271L46.1491 667.429C72.7574 672.803 109.677 673.96 163.238 671.631L167.67 671.432C198.731 669.993 215.061 668.229 239.213 664.373L245.805 663.309C270.052 659.418 285.23 657.749 315.554 656.289L318.093 656.17C339.395 655.241 359.042 656.246 413.273 660.549L444.038 663.01C451.047 663.559 456.995 664.008 462.993 664.438L469.377 664.886C496.389 666.74 518.337 667.672 538.256 667.638L539.302 667.636C551.137 667.595 572.545 664.027 593.366 658.615L594.992 658.189C617.662 652.186 636.197 644.947 645.674 637.749C658.68 627.87 655.127 617.671 634.416 610.675C611.998 603.102 568.332 597.674 501.256 594.775C367.841 589.007 255.241 589.495 168.672 595.366ZM501.04 599.77L505.01 599.946C569.394 602.867 611.408 608.18 632.816 615.412L633.785 615.746C642.363 618.757 646.986 621.961 648.021 624.932C648.861 627.342 647.206 630.307 642.65 633.767C633.829 640.466 615.78 647.512 593.693 653.36L592.108 653.776C571.923 659.022 551.173 662.506 539.732 662.632L539.285 662.636C518.188 662.708 494.796 661.678 465.42 659.598L455.865 658.902C449.727 658.443 443.179 657.932 435.109 657.285L415.441 655.706C358.371 651.165 338.83 652.179 316.434 653.241L312.02 653.457C283.655 654.891 268.542 656.596 245.021 660.371L237.601 661.567C213.242 665.436 196.807 667.144 164.141 668.587L163.021 668.636C110.367 670.926 73.9857 667.825 47.9256 662.685L47.1391 662.528C22.2184 657.494 7.6345 653.776 3.39322 641.45C1.63745 636.348 8.80626 631.099 20.6245 625.173C41.9258 614.492 93.8703 605.451 169.01 600.355C255.38 594.497 367.798 594.01 501.04 599.77Z" fill="#00160A"/>
<path fill-rule="evenodd" clip-rule="evenodd" d="M268.806 97.8803C274.773 83.604 290.844 74.2748 306.212 76.1664C296.325 70.9395 284.863 62.7698 286.67 51.7401C288.059 43.2591 297.151 38.1188 305.682 37.025C318.219 35.4175 332.375 41.1066 337.266 52.7518C342.157 64.3969 333.433 80.4962 320.803 80.0012C331.428 90.5046 335.284 107.3 330.302 121.38C327.801 128.45 316.975 128.863 311.437 123.803C305.898 118.743 304.307 110.79 303.016 103.403C296.785 107.441 289.557 109.931 282.16 110.587C285.65 111.761 288.581 114.494 289.994 117.892C283.834 113.086 276.643 109.607 269.05 107.759C266.289 117.031 263.498 126.643 264.769 136.233C266.041 145.823 272.535 155.433 282.067 157.13C303.671 160.976 318.466 123.633 340.319 125.638C349.319 126.464 356.122 122.467 359.388 114.047C362.654 105.627 359.696 95.212 352.489 89.7618C348.206 89.9621 344.088 86.4026 343.67 82.1383C343.252 77.874 346.6 73.5839 350.841 72.9499C341.837 60.1234 344.104 40.6906 355.819 30.2769C367.534 19.8632 387.115 19.8758 398.817 30.3046C392.409 19.969 398.482 4.35387 410.113 0.780661C421.744 -2.79255 435.395 6.38336 436.757 18.4649C438.118 30.5464 427.187 42.4209 415.019 42.3723C417.045 51.7216 425.612 59.262 435.15 60.09C431.073 64.8006 423.264 60.3611 419.884 55.1284C416.505 49.8956 413.296 43.0931 407.091 42.5136C414.714 51.4928 419.744 62.6455 421.427 74.2999C416.173 66.1498 412.408 57.0445 410.373 47.5657C411.118 55.1473 409.7 62.9289 406.33 69.7622C410.3 67.854 414.685 72.9118 414.046 77.2671C413.408 81.6224 409.905 84.898 406.781 88.0011C397.887 96.8339 390.164 110.249 396.031 121.322C399.984 128.784 408.623 132.146 415.748 136.686C431.102 146.472 440.748 163.433 445.412 181.024C450.076 198.614 450.305 217.032 450.505 235.228C450.933 274.175 451.361 313.121 451.788 352.067C451.93 364.908 451.249 379.605 441.284 387.716C447.377 379.267 450.01 368.402 448.462 358.104C438.232 392.692 430.194 427.274 427.395 467.362C424.596 507.45 430.132 524.248 418.36 578.904C417.3 583.825 419.617 589.626 422.545 594.332C427.661 602.553 446.979 607.159 443.29 613.871C438.583 622.435 417.957 620.421 404.95 619.825C399.603 619.581 393.858 618.705 390.029 614.966C385.271 610.319 385.002 602.889 385.018 596.241C385.184 525.666 382.498 455.085 376.97 384.726C375.914 439.227 374.849 493.852 367.956 547.926C366.015 563.159 362.085 579.099 362.698 594.332C363.031 602.623 366.882 611.508 368.221 619.825C369.284 626.43 364.488 628.7 359.388 628.328C358.037 628.229 356.965 629.361 355.577 629.273C354.426 629.2 353.26 628.419 351.957 628.328C350.563 628.229 349.021 628.818 347.526 628.7C346.407 628.611 346.152 627.684 344.144 627.684C342.135 627.684 341.536 628.307 339.529 627.991C337.521 627.675 333.876 630.16 332.05 627.413C328.746 622.443 337.266 609.128 336.763 602.193C336.259 595.258 333.617 573.156 333.409 567.286C331.61 516.563 320.5 419.791 320.5 419.791C320.5 419.791 314.014 496.698 292.113 542.946C286.68 554.419 279.28 573.297 286.67 583.023C294.06 592.748 289.818 601.373 292.463 611.279C294.576 619.191 299.847 625.961 300.333 635.375C300.573 640.024 293.716 639.031 293.043 638.554C292.369 638.078 291.228 635.357 290.657 635.59C289.802 635.939 292.063 638.368 289.366 640.046C286.67 641.724 285.596 639.879 284.315 640.431C283.066 640.968 282.404 642.643 280.985 642.402C278.11 641.915 277.95 640.776 277.649 640.876C277.335 640.981 277.798 642.76 276.62 643.099C275.443 643.438 272.031 641.957 271.338 641.283C270.323 640.296 270.691 643.885 269.331 643.712C263.791 643.005 261.894 637.918 262.405 634.895C259.494 641.874 255.466 646.451 248.387 648.982C246.783 649.556 245.926 647.753 245.112 647.846C244.665 647.896 245.484 649.315 244.147 649.75C242.81 650.184 242.166 650.019 240.473 649.518C238.78 649.016 239.215 644.754 238.801 644.754C238.387 644.754 238.408 646.952 237.668 647.572C236.247 648.763 235.432 648.868 234.201 647.256C233.512 646.352 234.318 644.856 233.828 644.754C233.495 644.684 232.868 646.489 231.729 646.76C229.734 647.233 229.083 647.415 227.56 645.355C226.894 644.455 228.155 641.95 227.353 641.724C226.55 641.499 225.555 645.675 224.517 646.451C223.48 647.228 222.788 646.558 221.85 645.849C216.663 635.973 224.173 624.615 229.352 614.735C243.996 586.805 240.317 552.899 232.406 522.376C224.495 491.853 212.666 461.807 212.046 430.283C211.804 418.004 213.279 405.644 211.59 393.479C209.75 380.23 204.246 367.815 200.235 355.054C192.615 330.81 190.374 305.22 189.378 279.828C188.593 259.834 188.587 239.516 193.835 220.206C199.083 200.895 210.187 182.462 227.353 172.156C238.058 165.729 251.331 162.117 258.245 151.724C264.713 142.002 263.584 129.291 262.207 117.698C257.63 116.867 254.234 111.928 255.1 107.361C255.965 102.794 260.933 99.4374 265.497 100.336C263.519 96.4709 261.541 92.6063 259.563 88.7416C260.829 90.5812 266.94 101.601 266.556 87.5146C267.039 91.0138 267.898 92.0749 268.806 97.8803Z" fill="white"/>
<path fill-rule="evenodd" clip-rule="evenodd" d="M242.431 346.629C240.45 347.775 237.884 349.261 236.236 347.707C231.735 343.463 224.232 342.905 219.106 346.333L218.8 346.545L218.557 349.42C223.682 345.567 231.571 346.006 236.236 350.405C237.715 351.799 239.935 350.745 241.806 349.685L242.855 349.086C248.13 346.212 255.071 346.678 259.896 350.266C262.596 352.273 265.843 351.006 269.205 349.695C272.014 348.599 274.902 347.473 277.619 348.198C278.889 348.537 280.141 349.268 281.368 349.985C283.616 351.299 285.78 352.563 287.814 351.272C291.842 348.717 297.406 348.846 301.311 351.585L300.958 349.499L300.803 348.552C296.934 346.143 291.67 346.128 287.814 348.575C285.781 349.865 283.616 348.601 281.368 347.288C280.141 346.571 278.889 345.839 277.619 345.5C274.902 344.775 272.014 345.902 269.205 346.998C265.843 348.309 262.596 349.576 259.896 347.568C254.972 343.907 247.846 343.497 242.534 346.569L242.431 346.629ZM242.393 377.302C240.457 378.523 237.95 380.106 236.244 378.617C231.583 374.549 218.643 381.008 218.643 381.008C219.423 381.357 221.21 380.994 223.413 380.546C227.564 379.703 233.192 378.559 236.348 381.313C237.879 382.649 240.057 381.51 241.886 380.38L242.911 379.741C248.072 376.666 255.025 376.865 259.985 380.265C262.759 382.168 265.956 380.777 269.265 379.338C272.029 378.135 274.873 376.898 277.615 377.519C278.897 377.809 280.176 378.492 281.43 379.161C283.727 380.387 285.938 381.567 287.921 380.2L288.197 380.015C290.46 378.553 295.46 379.463 299.993 380.288C303.29 380.889 306.34 381.444 307.908 381.008C307.908 381.008 291.577 374.912 287.817 377.504C285.835 378.872 283.624 377.692 281.326 376.465C280.073 375.796 278.793 375.113 277.511 374.823C274.769 374.203 271.926 375.44 269.161 376.642C265.852 378.082 262.656 379.472 259.881 377.57C254.82 374.1 247.684 373.964 242.494 377.238L242.393 377.302ZM244.009 266.441C242.238 267.716 239.457 268.505 238.113 266.786C233.894 261.392 224.053 262.283 220.873 268.348C224.589 266.291 228.969 264.18 232.9 265.79C233.994 266.238 234.998 266.959 235.991 267.673C237.646 268.862 239.272 270.03 241.235 269.879C242.695 269.766 243.955 268.921 245.208 268.081C246.554 267.178 247.892 266.28 249.464 266.298C251.209 266.318 252.629 267.452 254.051 268.587C255.468 269.719 256.885 270.851 258.624 270.879C260.048 270.902 261.344 270.164 262.628 269.433C264.064 268.616 265.485 267.807 267.053 268.079C268.924 268.402 270.048 270.074 271.174 271.748C272.293 273.412 273.413 275.078 275.271 275.421C276.372 275.624 277.463 275.288 278.526 274.879L279.58 274.463C282.064 273.497 284.836 272.961 287.396 273.704C289.595 274.343 291.553 276.124 292.071 278.301C292.04 277.817 292.003 277.335 291.961 276.855L291.896 274.104C289.077 271.775 285.135 270.871 281.582 271.744C280.973 271.893 280.373 272.092 279.774 272.29C278.621 272.672 277.47 273.053 276.263 273.081C274.429 273.124 272.348 271.925 272.335 270.092L272.328 269.896C272.13 266.857 267.834 265.852 264.809 266.644C264.166 266.813 263.513 267.017 262.857 267.223C260.356 268.007 257.798 268.808 255.529 267.691C254.652 267.26 253.911 266.57 253.178 265.886C252.152 264.93 251.14 263.987 249.788 263.783C248.128 263.533 246.65 264.486 245.25 265.519L244.009 266.441ZM221.02 244.601C222.227 241.717 222.194 238.53 222.05 235.979C222.05 235.979 219.957 239.662 217.173 239.266L216.977 239.244C215.724 239.153 214.411 239.87 213.175 240.544C211.506 241.455 209.976 242.29 208.919 240.959C206.325 237.697 202.085 235.815 197.924 236.077C196.742 236.152 195.491 236.43 194.671 237.284C193.851 238.138 193.712 239.71 194.652 240.429C195.615 238.021 198.979 237.559 201.384 238.533C202.755 239.088 203.959 239.954 205.164 240.821C206.073 241.475 206.984 242.131 207.968 242.654C210.259 243.872 213.477 244.162 215.134 242.167L215.263 242.021C216.557 240.662 219.058 240.688 220.291 242.121C220.876 242.8 221.105 243.713 221.02 244.601ZM232.658 207.867C229.832 209.137 226.711 206.901 224.607 204.628L223.598 203.545C221.741 201.584 219.638 199.69 217.027 199.831C215.617 199.907 214.32 200.596 213.112 201.325C209.506 203.502 206.211 206.192 203.358 209.288C206.126 209.523 208.431 207.619 210.715 205.732C213.114 203.751 215.489 201.789 218.353 202.342C220.538 202.764 222.059 204.539 223.575 206.308C225.133 208.126 226.685 209.938 228.949 210.269C230.45 210.488 231.921 209.979 233.375 209.475C233.728 209.352 234.081 209.23 234.433 209.119C241.422 206.908 249.634 209.282 254.362 214.879C256.521 217.435 260.552 216.223 263.606 214.679L264.446 214.245C267.501 212.703 271.545 211.51 273.683 214.083L273.886 214.319C277.323 218.161 283.357 217.826 288.597 216.94L289.53 216.775C289.585 217.089 289.638 217.43 289.69 217.798L289.794 218.569C290.921 214.614 290.476 213.711 289.53 215.806C287.835 214.287 284.525 214.75 282.303 215.247L282.099 215.291C279.904 215.736 277.112 215.561 276.292 213.512C274.792 209.763 269.314 210.286 265.581 211.832L265.099 212.03C261.441 213.516 256.899 214.96 254.244 212.148C248.874 206.46 239.794 204.66 232.658 207.867ZM291.061 203.786C291.103 202.527 291.235 201.029 291.475 199.326L291.535 198.913C288.962 197.307 285.696 196.854 282.782 197.7C280.384 198.396 278.364 196.743 276.294 195.05C274.451 193.543 272.57 192.003 270.347 192.06C268.556 192.105 267.087 193.179 265.601 194.264C264.401 195.141 263.189 196.027 261.787 196.386C258.371 197.26 255.227 194.869 252.432 192.526L251.318 191.588C248.255 189.012 243.418 186.931 240.573 189.746L240.391 189.917C237.992 192.061 234.072 191.299 231.237 189.684C230.338 189.172 229.47 188.588 228.603 188.004C226.664 186.699 224.729 185.397 222.466 184.913C219.192 184.214 214.971 186.453 215.412 189.769C217.812 187.229 221.85 186.399 225.059 187.786C226.57 188.439 227.979 189.532 229.365 190.606C231.889 192.563 234.338 194.461 237.194 193.546C238.062 193.267 238.812 192.742 239.565 192.216C240.201 191.771 240.839 191.325 241.551 191.027C245.161 189.513 248.523 192.085 251.926 194.688C255.214 197.202 258.54 199.746 262.163 198.663C263.508 198.262 264.686 197.377 265.848 196.505C267.439 195.31 269.001 194.137 270.919 194.26C272.879 194.385 274.388 195.842 275.833 197.237C275.927 197.328 276.021 197.418 276.114 197.508L276.513 197.886C278.173 199.438 280.679 200.77 282.613 199.575C285.71 197.66 289.89 200.316 291.061 203.786ZM293.798 188.565C294.433 187.803 295.029 186.837 295.588 185.667C296.343 184.085 296.355 181.363 295.588 182.969C294.657 184.92 292.503 186.469 290.397 185.974C289.471 185.756 288.68 185.187 287.891 184.621C287.015 183.992 286.142 183.365 285.093 183.227C283.906 183.071 282.786 183.574 281.671 184.073C281.313 184.234 280.956 184.394 280.598 184.532C279.123 185.1 277.083 185.103 276.361 183.698C273.87 178.855 266.123 177.975 262.608 182.137C261.16 183.852 258.283 182.752 256.76 181.104C256.38 180.693 256.018 180.247 255.656 179.8C254.567 178.458 253.472 177.109 251.847 176.661C250.017 176.158 248.244 176.979 246.453 177.809C244.837 178.557 243.207 179.313 241.507 179.109C239.757 178.898 238.37 177.735 236.989 176.576C236.524 176.185 236.059 175.795 235.582 175.443C233.686 174.043 230.617 173.365 229.254 175.286C231.595 175.629 233.626 176.889 235.66 178.151C236.519 178.684 237.379 179.217 238.262 179.682C241.239 181.248 245.368 181.855 247.607 179.346L247.741 179.206C249.391 177.603 252.331 178.919 253.924 180.671C254.215 180.99 254.503 181.328 254.793 181.668C256.134 183.242 257.524 184.873 259.518 185.054C261.306 185.216 262.843 184.134 264.381 183.052C265.909 181.977 267.439 180.9 269.217 181.042C271.038 181.187 272.379 182.544 273.724 183.903C275.043 185.238 276.366 186.575 278.147 186.773C279.103 186.88 280.041 186.629 280.98 186.378C281.371 186.273 281.763 186.168 282.156 186.09C285.816 185.355 289.484 186.862 292.885 188.476L293.585 188.811L293.798 188.565ZM226.456 220.202C226.981 220.49 227.483 220.972 227.541 221.606C227.599 222.239 226.962 222.905 226.436 222.618C224.386 221.499 221.906 222.367 219.843 223.458C219.601 223.586 219.358 223.717 219.114 223.849L219.114 223.849C217.279 224.843 215.385 225.867 213.365 225.682C211.616 225.52 209.991 224.472 208.402 223.446C206.291 222.083 204.243 220.761 202.048 221.614C200.935 222.046 200.101 222.966 199.262 223.893C198.639 224.581 198.012 225.272 197.266 225.771C197.053 225.913 196.81 226.044 196.562 226.003C195.881 225.892 195.912 224.802 196.207 224.129C198.128 219.756 203.603 217.71 207.613 219.868C208.312 220.244 208.967 220.726 209.62 221.206C210.746 222.034 211.866 222.858 213.189 223.124C215.33 223.555 217.419 222.423 219.387 221.357C219.521 221.284 219.656 221.211 219.789 221.139C221.873 220.018 224.38 219.063 226.456 220.202ZM243.066 225.862C246.055 227.491 249.981 227.295 252.786 225.376C254.781 224.01 257.554 225.163 259.435 226.677C259.807 226.976 260.175 227.292 260.544 227.61C262.041 228.898 263.561 230.206 265.492 230.48C267.065 230.704 268.584 230.188 270.113 229.67C271.376 229.241 272.646 228.81 273.96 228.792C276.153 228.761 278.125 229.862 280.063 230.944C280.478 231.177 280.892 231.408 281.307 231.627C283.653 232.867 286.676 233.717 288.865 232.226L278.869 228.019C277.491 227.439 276.073 226.85 274.575 226.789C273.212 226.734 271.877 227.119 270.547 227.502C269.011 227.945 267.482 228.386 265.925 228.143C263.968 227.839 262.424 226.54 260.888 225.247C260.382 224.821 259.877 224.395 259.358 224.007C257.263 222.437 253.972 221.527 252.205 223.446C250.624 225.162 247.813 225.105 245.618 224.264C244.579 223.866 243.603 223.329 242.628 222.792L242.628 222.792C241.543 222.195 240.458 221.598 239.288 221.193C237.066 220.424 234.216 220.566 232.817 222.428C232.681 223.035 233.414 223.526 234.046 223.49C234.45 223.467 234.827 223.316 235.205 223.164L235.205 223.164C235.417 223.078 235.629 222.993 235.847 222.93C237.765 222.375 239.516 223.552 241.254 224.72C241.858 225.126 242.459 225.531 243.066 225.862ZM294.121 322.182C293.317 324.255 290.47 324.565 288.526 323.601C287.388 323.037 286.424 322.188 285.458 321.337L285.458 321.337C284.774 320.734 284.088 320.131 283.339 319.626C281.532 318.41 278.884 317.915 277.382 319.517C273.651 323.496 267.731 325.096 262.601 323.513C260.638 322.907 258.834 321.891 257.027 320.873L257.027 320.873C256.016 320.303 255.003 319.733 253.962 319.234C251.06 317.844 247.605 317.03 244.71 318.436C243.605 318.972 242.668 319.791 241.73 320.611C240.926 321.314 240.121 322.018 239.208 322.546C236.113 324.335 232.122 323.813 229.069 321.948C228.545 321.628 228.038 321.271 227.531 320.913C226.374 320.097 225.218 319.282 223.874 318.924C221.942 318.409 219.413 319.395 219.202 321.452C217.844 319.405 220.029 316.469 222.418 316.277C224.807 316.085 226.978 317.592 228.941 319.017C230.905 320.441 233.113 321.914 235.495 321.64C237.489 321.41 239.035 320.048 240.603 318.668C241.666 317.732 242.738 316.787 243.966 316.182C248.039 314.172 252.823 316.23 256.8 318.437C260.776 320.645 265.224 323.105 269.562 321.824C271.27 321.319 272.751 320.278 274.232 319.238L274.233 319.237L274.233 319.237L274.233 319.237L274.233 319.237L274.233 319.237C274.806 318.834 275.379 318.432 275.965 318.06C278.067 316.728 280.701 315.769 282.962 316.785C283.955 317.23 284.75 318.002 285.546 318.776L285.546 318.776L285.546 318.776C285.907 319.126 286.267 319.476 286.646 319.796C288.719 321.546 291.459 322.421 294.121 322.182ZM315.201 404.795C312.881 407.793 308.189 406.768 304.639 405.434C301.089 404.1 296.436 403.006 294.042 405.945C292.681 407.615 289.991 407.35 288.107 406.303C287.299 405.854 286.556 405.295 285.814 404.737C284.827 403.994 283.841 403.253 282.707 402.774C278.295 400.909 273.489 403.5 269.202 405.812L268.781 406.038L268.505 406.187L268.441 406.221C263.967 408.617 257.66 410.144 254.426 406.234C252.216 403.563 247.922 404.238 244.814 405.778C244.184 406.091 243.554 406.432 242.922 406.773L242.921 406.774C240.439 408.117 237.919 409.48 235.165 409.237C232.722 409.021 230.519 407.566 228.362 406.142C225.626 404.334 222.964 402.576 219.981 403.463C219.044 403.741 218.199 404.272 217.359 404.8C216.292 405.47 215.233 406.136 214 406.276C214.004 403.22 217.346 401.048 220.404 401.101C223.332 401.152 226.008 402.625 228.583 404.042L228.926 404.23C231.607 405.702 234.543 407.127 237.582 406.778C239.68 406.537 241.535 405.486 243.394 404.434C244.194 403.981 244.996 403.527 245.817 403.138C248.546 401.843 252.266 401.45 254.195 403.773C256.707 406.795 261.417 406.854 265.119 405.53C266.867 404.904 268.517 404.039 270.165 403.173L270.166 403.173C272.007 402.207 273.847 401.241 275.823 400.611C279.569 399.417 284.336 399.835 286.517 403.103C287.854 405.106 290.886 404.962 293.107 404.029C293.725 403.769 294.334 403.465 294.943 403.16C296.522 402.371 298.1 401.582 299.839 401.571C301.688 401.56 303.484 402.428 305.241 403.277C307.574 404.405 309.836 405.499 312.057 404.451L315.201 404.795ZM265.562 295.835C263.047 296.276 260.793 294.928 258.509 293.563C256.548 292.39 254.565 291.205 252.375 291.126C249.769 291.032 247.431 292.507 245.116 293.967C242.567 295.576 240.045 297.166 237.224 296.627C236.102 296.412 235.087 295.87 234.069 295.327C233.564 295.056 233.057 294.786 232.537 294.555C228.639 292.827 223.812 293.52 220.536 296.279C221.164 293.377 224.069 291.393 226.98 291.155C229.89 290.917 232.747 292.112 235.213 293.704C237.313 295.06 240.111 294.5 242.335 293.367C243.225 292.913 244.075 292.377 244.923 291.842L244.923 291.842C246.195 291.039 247.465 290.237 248.867 289.717C252.771 288.27 257.462 289.36 260.363 292.388C262.128 294.23 265.144 293.737 267.485 292.768C267.821 292.629 268.16 292.482 268.5 292.334C270.53 291.454 272.629 290.544 274.737 291.046C276.606 291.49 278.087 292.959 279.537 294.398C281.303 296.151 283.024 297.86 285.35 297.62C286.108 297.542 286.816 297.248 287.526 296.952L287.526 296.952C288.047 296.735 288.57 296.518 289.114 296.385C290.4 296.072 292.092 296.517 292.369 297.833C288.687 299.236 284.392 300.598 281.008 298.559C279.946 297.92 279.044 296.978 278.152 296.046C276.739 294.571 275.353 293.124 273.407 292.956C271.819 292.819 270.402 293.605 268.968 294.401C267.871 295.01 266.764 295.625 265.562 295.835ZM248.836 247.052C250.18 246.204 251.524 245.354 253.093 245.228C255.481 245.035 257.489 246.528 259.435 247.976C259.869 248.299 260.299 248.619 260.731 248.918C263.096 250.558 266.98 251.396 268.541 249.046C269.455 247.669 271.641 247.588 273.165 248.337C274.274 248.882 275.153 249.735 276.031 250.589C276.36 250.909 276.689 251.228 277.031 251.532C278.46 252.803 280.222 253.841 282.174 254.02C284.125 254.198 286.26 253.348 287.113 251.676C282.491 252.619 277.355 250.554 274.859 246.749C273.601 244.829 270.487 245.753 268.449 246.927C266.41 248.101 263.412 249.18 261.976 247.375C258.63 243.169 251.399 242.423 247.176 245.85C245.115 247.522 241.873 246.409 239.802 244.748C239.259 244.313 238.736 243.839 238.212 243.365C236.74 242.032 235.265 240.697 233.334 240.198C229.941 239.323 226.053 241.926 225.792 245.247C226.746 245.36 227.747 244.863 228.191 244.055C229.178 242.257 231.88 241.921 233.851 242.709C235.419 243.336 236.669 244.461 237.912 245.581L237.912 245.581C238.232 245.87 238.552 246.158 238.877 246.437C240.462 247.798 242.424 249.038 244.557 248.878C246.135 248.759 247.486 247.906 248.836 247.052Z" fill="#FFB61D"/>
<path fill-rule="evenodd" clip-rule="evenodd" d="M268.806 97.8803C274.773 83.604 290.844 74.2748 306.212 76.1664C296.325 70.9395 284.863 62.7698 286.67 51.7401C288.059 43.2591 297.151 38.1188 305.682 37.025C318.219 35.4175 332.375 41.1066 337.266 52.7518C342.157 64.3969 333.433 80.4962 320.803 80.0012C331.428 90.5046 335.284 107.3 330.302 121.38C327.801 128.45 316.975 128.863 311.437 123.803C305.898 118.743 304.307 110.79 303.016 103.403C296.785 107.441 289.557 109.931 282.16 110.587C285.65 111.761 288.581 114.494 289.994 117.892C283.834 113.086 276.643 109.607 269.05 107.759C266.289 117.031 263.498 126.643 264.769 136.233C266.041 145.823 272.535 155.433 282.067 157.13C293.054 159.086 302.28 150.388 311.57 141.631C320.546 133.17 329.58 124.653 340.319 125.638C349.319 126.464 356.122 122.467 359.388 114.047C362.654 105.627 359.696 95.212 352.489 89.7618C348.206 89.9621 344.088 86.4026 343.67 82.1383C343.252 77.874 346.6 73.5839 350.841 72.9499C341.837 60.1234 344.104 40.6906 355.819 30.2769C367.534 19.8632 387.115 19.8758 398.817 30.3046C392.409 19.969 398.482 4.35387 410.113 0.780661C421.744 -2.79255 435.395 6.38336 436.757 18.4649C438.118 30.5464 427.187 42.4209 415.019 42.3723C417.045 51.7216 425.612 59.262 435.15 60.09C431.073 64.8006 423.264 60.3611 419.884 55.1284C419.402 54.3813 418.923 53.6022 418.438 52.8137C415.527 48.08 412.41 43.0104 407.091 42.5136C414.714 51.4928 419.744 62.6455 421.427 74.2999C416.173 66.1498 412.408 57.0445 410.373 47.5657C411.118 55.1473 409.7 62.9289 406.33 69.7622C410.3 67.854 414.685 72.9118 414.046 77.2671C413.439 81.4088 410.242 84.5742 407.243 87.5433C407.088 87.6964 406.934 87.849 406.781 88.0011C397.887 96.8339 390.164 110.249 396.031 121.322C399.068 127.055 404.871 130.367 410.628 133.654C412.364 134.645 414.097 135.634 415.748 136.686C431.102 146.472 440.748 163.433 445.412 181.024C450.076 198.614 450.305 217.032 450.505 235.228L451.788 352.067C451.93 364.908 451.249 379.605 441.284 387.716C447.377 379.267 450.01 368.402 448.462 358.104C438.232 392.692 430.194 427.274 427.395 467.362C426.486 480.377 426.456 490.937 426.427 501.134C426.366 522.347 426.31 541.992 418.36 578.904C417.3 583.825 419.617 589.626 422.545 594.332C424.762 597.895 429.647 600.778 434.17 603.449C440.084 606.941 445.38 610.068 443.29 613.871C439.027 621.627 421.708 620.706 408.816 620.022C407.473 619.95 406.178 619.881 404.95 619.825C399.603 619.581 393.858 618.705 390.029 614.966C385.271 610.319 385.002 602.889 385.018 596.241C385.184 525.666 382.498 455.085 376.97 384.726C375.914 439.227 374.849 493.852 367.956 547.926C367.379 552.453 366.626 557.043 365.87 561.659C364.08 572.572 362.267 583.627 362.698 594.332C362.893 599.202 364.303 604.278 365.704 609.323C366.689 612.866 367.669 616.394 368.221 619.825C369.284 626.43 364.488 628.7 359.388 628.328C358.714 628.278 358.109 628.536 357.499 628.795C356.888 629.055 356.272 629.317 355.577 629.273C355.016 629.237 354.451 629.033 353.869 628.823L353.868 628.823C353.256 628.602 352.625 628.375 351.957 628.328C351.278 628.28 350.565 628.395 349.839 628.511C349.073 628.635 348.294 628.76 347.526 628.7C347.068 628.663 346.755 628.487 346.408 628.291C345.905 628.008 345.331 627.684 344.144 627.684C343.291 627.684 342.693 627.796 342.133 627.901C341.373 628.043 340.684 628.173 339.529 627.991C338.858 627.885 338.005 628.092 337.097 628.313C335.288 628.751 333.266 629.242 332.05 627.413C330.176 624.594 332.107 619.088 334.037 613.585C335.509 609.389 336.981 605.194 336.763 602.193C336.548 599.23 335.942 593.497 335.303 587.445C334.446 579.333 333.528 570.648 333.409 567.286C331.61 516.563 327.687 465.447 319.754 415.316C306.715 424.164 292.471 431.24 277.54 436.286C272.291 438.06 271.055 444.787 270.691 450.311C268.024 490.752 265.541 532.573 279.437 570.65C297.47 523.597 311.038 474.838 319.901 425.239C315.558 465.514 305.85 505.209 291.113 542.946C286.15 555.655 279.28 573.297 286.67 583.023C291.314 589.133 291.365 594.81 291.417 600.642C291.448 604.092 291.48 607.597 292.463 611.279C293.268 614.292 294.531 617.14 295.813 620.032C297.897 624.732 300.032 629.546 300.333 635.375C300.573 640.024 293.716 639.031 293.043 638.554C292.758 638.353 292.39 637.751 292.017 637.14C291.507 636.306 290.987 635.456 290.657 635.59C290.353 635.714 290.443 636.1 290.563 636.622C290.783 637.57 291.105 638.964 289.366 640.046C287.695 641.086 286.647 640.773 285.787 640.516C285.259 640.358 284.802 640.221 284.315 640.431C283.826 640.641 283.427 641.026 283.037 641.402C282.432 641.986 281.849 642.549 280.985 642.402C278.946 642.057 278.273 641.384 277.946 641.057C277.812 640.923 277.736 640.847 277.649 640.876C277.542 640.912 277.525 641.141 277.503 641.441C277.46 642.024 277.398 642.876 276.62 643.099C275.443 643.438 272.221 642.074 271.528 641.4C271.026 640.912 270.816 641.514 270.567 642.227C270.313 642.955 270.018 643.799 269.331 643.712C263.791 643.005 261.894 637.918 262.405 634.895C259.494 641.874 255.466 646.451 248.387 648.982C247.403 649.334 246.701 648.792 246.117 648.342C245.748 648.058 245.427 647.81 245.112 647.846C244.948 647.864 244.954 648.066 244.962 648.335C244.976 648.802 244.995 649.474 244.147 649.75C242.81 650.184 242.166 650.019 240.473 649.518C239.345 649.183 239.162 647.181 239.043 645.881C238.983 645.229 238.939 644.754 238.801 644.754C238.614 644.754 238.515 645.204 238.395 645.755C238.25 646.421 238.073 647.233 237.668 647.572C236.247 648.763 235.432 648.868 234.201 647.256C233.817 646.752 233.897 646.065 233.959 645.537C234.008 645.118 234.045 644.799 233.828 644.754C233.699 644.727 233.526 644.981 233.296 645.318C232.933 645.852 232.427 646.594 231.729 646.76L231.661 646.776C229.719 647.236 229.065 647.392 227.56 645.355C227.229 644.908 227.374 644.065 227.505 643.302C227.638 642.529 227.756 641.838 227.353 641.724C226.927 641.605 226.447 642.724 225.935 643.917C225.482 644.973 225.005 646.086 224.517 646.451C223.563 647.165 222.902 646.656 222.072 646.018C222 645.962 221.926 645.906 221.85 645.849C217.254 637.097 222.627 627.182 227.515 618.163L227.517 618.159L227.521 618.151C228.147 616.996 228.765 615.856 229.352 614.735C243.996 586.805 240.317 552.899 232.406 522.376C230.362 514.486 228.055 506.629 225.748 498.769C219.129 476.222 212.506 453.659 212.046 430.283C211.961 425.964 212.088 421.635 212.216 417.307C212.45 409.333 212.685 401.365 211.59 393.479C210.283 384.069 207.128 375.081 203.973 366.09L203.973 366.09C202.685 362.421 201.397 358.752 200.235 355.054C192.615 330.81 190.374 305.22 189.378 279.828C188.593 259.834 188.587 239.516 193.835 220.206C199.083 200.895 210.187 182.462 227.353 172.156C230.474 170.282 233.814 168.647 237.151 167.014C245.258 163.046 253.347 159.087 258.245 151.724C264.713 142.002 263.584 129.291 262.207 117.698C257.63 116.867 254.234 111.928 255.1 107.361C255.965 102.794 260.933 99.4374 265.497 100.336L259.563 88.7416C259.683 88.9169 259.848 89.1756 260.047 89.488L260.047 89.4881C261.935 92.4537 266.903 100.259 266.556 87.5146C266.776 89.1072 267.073 90.1947 267.418 91.4544C267.831 92.9624 268.311 94.7171 268.806 97.8803ZM435.54 359.305C436.781 357.817 437.26 355.854 437.661 353.959C443.989 324.041 439.488 293.956 425.173 266.929C393.416 269.646 361.389 269.2 329.721 265.598C325.034 265.065 322.04 270.368 320.551 274.84C312.277 299.69 309.331 326.297 311.969 352.354C312.424 356.847 317.821 358.8 322.284 359.514C332.514 361.15 338.165 360.101 346.545 358.546L346.545 358.546L346.546 358.546L346.546 358.546L346.547 358.546L346.548 358.546C352.982 357.351 361.026 355.859 373.986 355.054C375.516 354.958 375.447 349.722 375.359 343.048C375.265 335.927 375.15 327.169 376.931 321.269C382.427 415.415 386.268 509.657 388.453 603.937C388.521 606.872 388.649 610.001 390.341 612.401C392.739 615.804 397.393 616.588 401.548 616.876C414.422 617.769 438.961 618.293 439.966 613.579C439.336 609.37 434.544 606.974 430.055 604.73C429.157 604.281 428.27 603.838 427.432 603.387C420.233 599.521 416.411 591.156 415.689 583.022C415.044 575.755 416.459 568.508 417.862 561.325C418.029 560.469 418.197 559.613 418.36 558.758C422.614 536.51 424.43 513.797 423.764 491.155C423.706 489.194 423.63 487.232 423.554 485.27C423.287 478.388 423.019 471.504 423.551 464.643C424.212 456.102 426.101 447.723 427.987 439.356L427.987 439.355L427.988 439.353C428.376 437.629 428.765 435.905 429.143 434.18C434.272 410.76 437.433 386.91 438.583 362.963C419.846 371.109 397.226 369.682 379.662 359.247C394.902 365.252 411.752 365.121 427.939 362.602C430.732 362.167 433.732 361.476 435.54 359.305ZM448.111 213.587C446.129 196.214 442.012 179.085 435.88 162.708C434.768 159.739 433.044 157.5 431.198 155.102C430.68 154.43 430.152 153.745 429.626 153.027C425.236 147.045 418.887 143.139 412.506 139.212C407.518 136.143 402.509 133.061 398.4 128.965C392.76 134.188 384.946 136.99 377.27 136.542C369.593 136.094 362.159 132.402 357.167 126.559C356.798 126.127 356.144 126.118 355.577 126.149C346.135 126.659 336.647 128.378 328.09 132.398C319.533 136.418 311.938 142.883 307.657 151.307C305.908 154.749 304.734 158.45 303.635 162.152C298.078 180.875 294.253 200.111 292.224 219.534C292.103 220.697 292.028 222 292.777 222.898C293.283 223.504 294.065 223.793 294.817 224.034C301.412 226.148 308.567 226.49 315.334 225.016L296.484 222.364C295.363 222.207 293.91 221.013 294.815 220.334C295.11 220.112 295.518 220.148 295.885 220.194L318.093 222.974C319.081 223.097 319.664 221.899 319.827 220.918C320.298 218.077 319.933 215.087 319.572 212.133C319.032 207.704 318.501 203.354 320.814 199.707C322.848 219.473 322.476 239.486 319.709 259.163C319.386 261.46 322.391 262.592 324.696 262.865C356.252 266.606 388.15 267.457 419.861 265.403C424.816 265.082 428.564 260.339 429.449 255.458C430.335 250.576 429.035 245.592 427.744 240.801L418.028 204.727C417.44 202.543 416.997 199.833 418.704 198.347L424.596 221.093C424.839 222.031 425.174 223.084 426.052 223.495C426.694 223.796 427.447 223.658 428.143 223.513L443.611 220.299C444.913 220.029 446.305 219.709 447.204 218.73C448.421 217.405 448.314 215.374 448.111 213.587ZM293.033 195.031L293.033 195.031C295.465 183.453 298.628 168.394 284.55 173.011L284.304 173.092C278.712 174.926 272.104 177.094 266.112 175.191C260.032 173.259 254.873 168.613 252.32 162.771C253.941 161.573 255.946 163.564 257.175 165.161C263.135 172.902 274.72 175.677 283.546 171.479C287.868 169.422 287.896 163.383 287.268 158.641C277.77 161.846 266.214 155.166 264.26 145.341C262.383 151.874 258.024 157.663 252.261 161.274C250.094 162.632 247.757 163.683 245.421 164.733L245.42 164.733L245.42 164.734L245.419 164.734L245.419 164.734L245.419 164.734L245.419 164.734L245.419 164.734L245.418 164.734L245.418 164.734L245.418 164.734L245.418 164.735L245.418 164.735L245.417 164.735L245.417 164.735L245.417 164.735C244.684 165.064 243.951 165.394 243.224 165.733C214.472 179.129 194.126 208.966 192.169 240.603C192.083 242.005 192.367 243.855 193.754 244.083L215.089 247.591C215.344 247.633 215.578 247.68 215.803 247.725C216.957 247.957 217.836 248.133 219.733 247.262C221.999 246.221 222.425 235.189 222.212 231.77C221.999 228.35 221.772 223.987 224.869 222.517C225.152 233.584 223.337 244.525 221.521 255.477C220.046 264.369 218.569 273.269 218.214 282.25C218.099 285.141 218.188 288.041 218.277 290.938C218.375 294.127 218.472 297.314 218.298 300.482C216.007 342.221 215.59 436.967 215.59 436.967C215.59 436.967 255.885 433.821 270.691 430.283C292.519 425.066 306.796 418.698 314.001 415.484C317.301 414.011 319.118 413.201 319.497 413.466C318.167 405.721 314.668 390.583 310.612 373.032L310.612 373.032C302.652 338.597 292.546 294.873 292.463 279.455C292.457 278.386 291.962 276.948 291.554 275.763C290.946 273.997 290.531 272.793 292.22 274.21L291.893 260.433C291.818 257.255 291.594 250.291 291.36 248.716C288.843 231.784 289.999 221.079 290.864 213.062C291.21 209.858 291.51 207.083 291.51 204.512C291.51 202.281 292.231 198.845 293.033 195.031ZM345.042 623.385C345.399 627.684 348.34 628.288 350.841 626.214C351.667 625.53 351.97 623.089 352.276 620.619C352.332 620.169 352.388 619.717 352.447 619.275C352.908 620.351 352.976 621.962 353.039 623.456C353.123 625.469 353.198 627.27 354.214 627.27C358.253 627.27 357.609 620.237 357.305 616.911L357.304 616.907L357.302 616.883C357.293 616.78 357.284 616.681 357.275 616.586C357.266 616.487 357.258 616.393 357.25 616.302C358.079 615.097 359.42 618.326 359.079 620.193C358.738 622.061 358.694 624.459 360.041 625.798C362.185 627.93 365.5 624.486 365.899 621.49C366.594 616.258 364.828 611.24 363.048 606.181C361.792 602.613 360.528 599.024 360.116 595.324C359.579 590.496 360.511 585.647 361.431 580.869C361.477 580.629 361.523 580.389 361.569 580.15C369.91 536.616 371.276 492.09 372.618 447.785L375.291 359.545C355.732 364.252 335.2 364.877 315.391 361.369C314.285 361.174 313.913 362.795 314.037 363.91C316.344 384.543 319.566 405.102 322.786 425.652C328.901 464.673 335.012 503.664 334.844 543.084C334.833 545.784 334.792 548.489 334.752 551.195C334.571 563.226 334.39 575.289 336.763 587.052C336.982 588.139 337.223 589.23 337.464 590.326C338.665 595.771 339.884 601.297 338.544 606.644C338.001 608.806 337.05 610.926 336.105 613.032C334.295 617.064 332.51 621.042 333.676 625.149C334.011 626.325 334.927 627.621 336.133 627.413C337.618 627.157 337.624 625.342 337.63 623.561C337.636 621.769 337.642 620.011 339.156 619.913C338.892 622.581 340.421 627.025 342.163 626.493C343.272 626.493 343.474 624.493 343.689 622.349C343.839 620.858 343.996 619.298 344.47 618.293C345.341 619.698 345.198 621.115 345.088 622.211C345.042 622.665 345.002 623.065 345.042 623.385ZM308.372 331.945C308.266 319.122 310.767 306.438 313.258 293.859C315.283 283.635 317.435 273.099 323.317 264.492C321.562 265.318 319.398 264.048 318.556 262.302C317.715 260.556 317.836 258.52 317.975 256.587L319.898 229.908C320.002 228.465 319.352 226.369 317.973 226.808C310.858 229.071 302.982 228.863 295.997 226.227C294.951 225.832 294.312 227.374 294.263 228.49C291.986 280.097 308.532 351.395 308.372 331.945ZM281.773 632.73C282.801 632.587 283.578 634.924 284.224 636.87C284.539 637.818 284.823 638.673 285.091 639.102C285.95 640.483 288.292 639.956 289.117 638.554C289.554 637.812 289.483 636.088 289.423 634.63C289.37 633.335 289.325 632.25 289.653 632.25C291.488 632.25 292.078 633.718 292.64 635.117C293.197 636.501 293.726 637.817 295.407 637.576C296.781 637.378 297.667 635.999 298.055 634.668C299.457 629.847 296.832 625.414 294.153 620.888C292.704 618.441 291.24 615.968 290.387 613.392C289.245 609.943 289.226 606.265 289.208 602.591C289.188 598.722 289.169 594.858 287.836 591.27C286.983 588.971 285.629 586.907 284.28 584.85C284.004 584.429 283.728 584.008 283.457 583.586C269.559 561.958 267.054 535.085 266.556 509.387C266.105 486.125 266.982 462.838 269.182 439.676L260.473 440.922L216.581 447.2C223.276 486.848 234.362 525.605 245.425 564.264C246.839 569.204 248.258 574.157 250.227 578.904C252.333 583.978 255.064 588.793 258.338 593.205C263.248 599.822 262.878 608.746 262.534 617.036L262.533 617.043L262.533 617.049L262.509 617.644L262.49 618.094C262.485 618.213 262.48 618.333 262.475 618.453L262.464 618.717C262.456 618.904 262.448 619.092 262.44 619.281L262.418 619.755C262.051 627.995 261.628 637.495 268.806 641.139C270.573 642.036 270.33 640.389 270.029 638.35C269.796 636.771 269.528 634.956 270.131 633.903C270.327 635.803 270.545 637.772 271.528 639.41C272.511 641.048 274.491 642.255 276.327 641.724C276.844 641.442 276.629 640.182 276.372 638.668C276.096 637.045 275.77 635.131 276.245 633.821C276.819 634.758 277.07 635.736 277.332 636.755C277.611 637.844 277.902 638.98 278.612 640.164C279.84 642.213 282.937 641.058 283.143 639.16C283.259 638.094 282.811 637.104 282.372 636.132C281.861 635.003 281.361 633.899 281.773 632.73ZM211.172 381.461C213.733 350.166 216.296 318.816 215.942 287.419C215.936 286.847 215.928 286.275 215.921 285.703L215.921 285.701C215.859 280.933 215.798 276.159 216.29 271.419C216.803 266.481 217.918 261.605 219.603 256.934L193.514 253.757C193.153 253.713 192.734 253.689 192.482 253.951C192.292 254.148 192.264 254.446 192.246 254.719C189.423 297.668 195.924 341.206 211.172 381.461ZM426.952 228.041L430.132 240.888C431.212 245.251 432.301 249.695 432.046 254.183C431.79 258.672 429.983 263.293 426.312 265.891C437.541 281.733 441.379 301.707 441.997 321.109C442.325 331.428 441.826 341.743 441.327 352.06V352.061V352.061V352.062V352.062V352.062V352.063V352.063V352.064V352.064V352.065V352.065V352.066V352.066V352.067V352.067C440.888 361.148 440.448 370.229 440.573 379.315C448.147 359.199 448.449 337.191 448.659 315.7L449.226 257.703C449.342 245.811 449.456 233.871 447.897 222.08L429.626 225.689C428.315 225.948 426.631 226.745 426.952 228.041ZM360.918 29.5569C352.618 33.7415 348.313 43.5937 348.506 52.8809C348.587 56.7563 349.682 61.1244 353.091 62.9741C355.284 64.1639 358.159 63.962 360.164 62.4773C362.169 60.9927 363.199 58.3026 362.698 55.8601C362.459 54.7005 364.035 53.8183 365.12 54.294C366.204 54.7697 366.728 56.0219 366.882 57.1956C366.942 57.6477 366.962 58.1054 366.983 58.5626V58.5629V58.5631C367.016 59.2925 367.049 60.0206 367.239 60.7228C367.764 62.661 369.569 64.1837 371.57 64.3759C373.57 64.5681 375.632 63.417 376.517 61.6142C376.746 61.1484 376.904 60.6436 377.062 60.1409L377.062 60.1407C377.331 59.2842 377.597 58.4338 378.207 57.793C379.174 56.7759 381.512 57.2635 381.203 58.6321C380.571 61.4316 383.525 64.1921 386.38 63.8782C389.235 63.5644 391.431 60.8395 391.752 57.9875L391.765 57.8641L391.776 57.7706C391.947 56.2102 392.168 54.2011 393.686 54.0659C394.951 55.326 395.241 57.2129 395.527 59.0734C395.847 61.1517 396.161 63.1971 397.824 64.2992C400.183 65.8627 403.437 64.0966 405.041 61.7658C407.332 58.4378 407.786 54.0891 406.966 50.1341C406.147 46.179 404.165 42.5576 401.908 39.2065C400.209 36.6835 398.321 34.2556 395.999 32.2905C388.769 26.1746 378.328 25.3799 369.007 27.0694C366.222 27.5743 363.446 28.2826 360.918 29.5569ZM243.451 565.447C242.456 570.771 242.047 576.136 241.639 581.502C241.23 586.868 240.821 592.234 239.826 597.557C239.544 599.067 237.386 603.183 234.643 608.413C229.143 618.899 221.293 633.865 221.511 641.283C221.551 642.621 222.158 645.26 223.292 645.096C225.424 644.787 225.821 642.433 226.19 640.242C226.235 639.975 226.279 639.71 226.326 639.451C226.761 637.075 227.121 636.351 229.514 636.702C230.246 636.932 230.246 637.857 229.42 639.451C228.593 641.046 227.985 643.053 228.954 644.566C229.924 646.078 232.982 645.675 232.832 643.885C232.712 642.456 233.731 641.015 235.119 640.65C235.585 641.465 235.385 642.566 235.198 643.6C234.966 644.879 234.753 646.054 235.845 646.451C237.341 646.995 238.147 644.775 238.425 643.209C238.704 641.642 240.825 639.959 241.5 641.4C239.711 643.573 237.86 648.711 242.81 648.711C244.186 648.711 244.166 646.467 244.146 644.224C244.136 643.102 244.126 641.98 244.29 641.139C245.613 641.056 246.15 642.864 245.914 644.167C245.858 644.477 245.786 644.747 245.722 644.994C245.513 645.784 245.371 646.326 246.002 647.114C247.178 648.58 249.548 647.485 250.899 646.178C256.118 641.125 258.908 634.867 259.976 627.684C261.044 620.501 260.534 613.188 260.022 605.944C259.756 602.179 259.402 598.171 257.093 595.182C250.368 586.476 245.663 576.221 243.451 565.447ZM377.191 65.0051C374.6 67.6853 369.743 67.6569 367.184 64.9466C366.947 64.6952 366.727 64.4247 366.507 64.1545C366.057 63.601 365.608 63.0487 365.012 62.6645C364.126 62.0927 362.727 62.0895 362.215 63.0108C360.075 66.8636 354.263 68.0225 350.807 65.2856L357.975 92.5777C359.31 97.6582 360.784 102.99 364.488 106.718C366.826 109.07 369.882 110.586 373.006 111.703C374.686 112.303 376.439 112.806 378.222 112.755C380.219 112.699 382.135 111.952 383.901 111.02C391.308 107.11 396.578 99.8998 399.549 92.0749C402.521 84.25 403.402 75.7946 403.756 67.4327C399.736 68.8021 394.866 66.9388 392.79 63.2366C390.018 65.9137 385.642 66.7843 382.055 65.3724C381.92 65.3192 381.782 65.2636 381.642 65.2072C380.103 64.5879 378.297 63.8607 377.191 65.0051ZM328.602 97.1014C326.145 89.1853 320.031 82.209 312.077 79.8567C309.206 79.0074 306.182 78.7617 303.188 78.8281C288.888 79.1451 274.242 87.9007 270.17 101.601C269.845 102.693 269.604 103.936 270.178 104.92C270.73 105.868 271.868 106.282 272.928 106.569C282.196 109.076 292.586 107.019 300.198 101.171L300.29 101.1L300.394 101.02L300.396 101.018C301.233 100.371 302.1 99.7006 303.139 99.5416C304.26 99.37 305.607 100.107 305.601 101.24C305.55 110.961 310.425 121.367 319.497 124.878C321.388 125.61 323.692 125.968 325.314 124.753C326.352 123.976 326.888 122.713 327.331 121.495C330.166 113.707 331.058 105.017 328.602 97.1014ZM290.104 58.4389C291.837 62.3541 295.027 65.4308 298.362 68.1178C304.166 72.7936 311.01 76.7295 318.461 76.9969C325.912 77.2642 333.9 72.9115 335.819 65.7133C336.818 61.9663 336.114 57.9668 334.92 54.2774C333.673 50.4253 331.713 46.5374 328.247 44.4413C318.893 38.7859 306.776 37.9738 296.751 42.3307C294.613 43.2599 292.516 44.4514 291.055 46.267C288.371 49.6032 288.372 54.5237 290.104 58.4389ZM428.114 29.6181C432.271 21.9621 431.474 11.8941 426.164 4.98653C425.396 3.98834 424.52 3.03385 423.401 2.45578C422.306 1.89012 421.049 1.72171 419.818 1.67609C413.594 1.44561 407.332 4.31254 403.442 9.17234C399.553 14.0321 398.132 20.7669 399.726 26.782C400.614 26.3628 400.951 25.2977 401.2 24.3491C401.449 23.4005 401.798 22.3357 402.692 21.9313C403.586 21.5269 404.889 22.5915 404.292 23.3696C402.296 25.969 401.341 29.3442 401.679 32.603C402.01 33.3163 403.037 32.5163 403.322 31.7832L404.598 28.4955C404.898 27.7224 405.235 26.9013 405.923 26.4377C406.611 25.974 407.755 26.107 408.033 26.8884L404.87 33.424C404.462 34.2674 404.237 35.588 405.131 35.87L413.953 29.1321C415.08 30.4099 414.044 32.469 412.672 33.4799C412.251 33.7899 411.795 34.065 411.339 34.3397C410.309 34.9607 409.283 35.5795 408.679 36.5945C411.673 36.9502 414.707 36.9644 417.705 36.6368C419.305 36.4619 420.917 36.1832 422.378 35.5083C424.91 34.3386 426.784 32.0683 428.114 29.6181ZM361.543 126.786C364.761 130.11 369.457 131.495 373.986 132.445C380.703 133.856 388.411 134.375 393.729 130.04C394.82 129.151 395.834 127.712 395.243 126.436C392.744 121.045 391.817 114.938 392.605 109.049C391.499 108.862 390.613 109.889 389.893 110.747C387.169 113.998 383.197 116.331 378.958 116.52C373.069 116.781 367.828 113.083 363.108 109.554C362.75 113.537 361.648 117.451 359.877 121.037C358.934 122.947 360.062 125.256 361.543 126.786ZM216.239 443.002C217.765 443.965 219.713 443.833 221.511 443.666C248.311 441.169 275.935 437.964 299.333 424.672C279.754 431.899 258.884 434.781 238.206 437.617C230.703 438.646 223.067 439.674 215.59 438.469C214.114 439.508 214.712 442.038 216.239 443.002ZM289.039 159.36L289.653 166.874C289.704 167.509 289.763 168.168 290.078 168.723C290.46 169.397 291.16 169.818 291.83 170.208L297.094 173.276C297.347 173.424 297.64 173.577 297.919 173.488C298.254 173.381 298.39 172.99 298.479 172.65L303.266 154.436C298.4 155.685 293.636 157.334 289.039 159.36ZM217.465 253.815C217.912 253.834 218.374 253.849 218.788 253.681C219.908 253.225 220.108 251.754 220.138 250.546C210.836 249.725 201.601 248.147 192.555 245.833C191.218 246.812 191.473 249.033 192.645 250.205C193.817 251.376 195.544 251.76 197.177 252.042C203.871 253.198 210.678 253.532 217.465 253.815ZM261.51 113.683C262.92 114.174 264.24 112.62 264.547 111.16C264.648 110.677 264.698 110.178 264.748 109.679V109.679C264.849 108.67 264.949 107.666 265.477 106.818C266.258 105.564 265.18 103.79 263.746 103.431C262.312 103.071 260.811 103.742 259.633 104.634C257.699 106.097 256.218 108.754 257.332 110.907C258.12 112.431 259.89 113.119 261.51 113.683ZM411.13 74.2006C411.003 73.7031 410.822 73.204 410.481 72.8203C409.474 71.6867 407.475 72.1 406.489 73.2518C405.502 74.4036 405.258 75.9973 405.069 77.5016C404.832 79.3793 404.621 81.2601 404.433 83.1433C404.384 83.6357 404.573 84.3536 405.055 84.2387C409.291 83.228 412.202 78.4184 411.13 74.2006ZM351.69 85.4873C352.005 85.3087 352.306 85.0758 352.467 84.7515C352.715 84.2518 352.582 83.656 352.445 83.1154L351.628 79.9102C351.307 78.6483 350.814 77.1944 349.574 76.7914C348.19 76.3413 346.79 77.5452 346.152 78.8526C345.209 80.7859 345.296 83.3469 346.832 84.8531C348.083 86.0794 350.166 86.3513 351.69 85.4873ZM413.031 40.0956C411.974 39.5645 410.728 39.4172 409.576 39.687C410.541 40.7672 412.174 41.1951 413.546 40.7275C413.938 40.5169 413.538 39.7675 413.144 39.9762L413.031 40.0956ZM425.523 219.968L443.586 215.583C443.899 215.507 444.255 215.436 444.529 215.59C445.241 215.992 444.384 216.916 443.608 217.207C438.687 219.056 433.455 220.245 428.142 220.723C427.165 220.811 425.944 220.759 425.523 219.968ZM274.849 120.42C275.402 120.117 275.608 119.541 275.815 118.962C275.903 118.717 275.992 118.471 276.106 118.244C276.492 117.485 277.876 117.002 278.203 117.784C279.371 120.575 282.558 122.556 285.837 122.53C287.013 122.521 287.49 124.115 286.78 124.968C286.07 125.822 284.783 126.052 283.612 126.146C282.63 124.759 280.937 124.033 279.245 123.308L279.245 123.308C277.53 122.574 275.818 121.841 274.849 120.42ZM304.915 138.397C304.337 138.309 303.946 137.788 303.565 137.279C303.142 136.714 302.73 136.164 302.085 136.24C299.829 136.506 298.447 133.871 297.734 131.697C297.448 130.828 297.726 129.361 298.57 129.699C300.728 132.073 303.716 133.664 306.877 134.124C308.103 134.302 309.678 134.596 309.889 135.825L306.26 137.971C305.846 138.216 305.389 138.47 304.915 138.397ZM294.361 143.937C287.315 146.391 278.502 143.228 275.168 137.048C274.798 136.362 273.517 136.651 273.212 137.364C272.908 138.077 273.259 138.875 273.662 139.545C275.723 142.975 279.341 145.594 283.466 146.643C287.591 147.692 292.17 147.157 295.873 145.193C295.645 144.522 295.079 143.687 294.361 143.937ZM287.483 128.359C288.089 127.552 288.761 126.734 289.689 126.341C290.616 125.948 291.867 126.137 292.369 127.012C290.518 128.679 288.844 130.544 287.387 132.567C286.834 133.335 286.287 134.228 286.437 135.164C286.588 136.099 287.843 136.817 288.512 136.148C289.012 135.649 289.988 136.17 290.029 136.877C290.07 137.584 289.433 138.187 288.745 138.347C288.058 138.507 287.341 138.332 286.662 138.138C285.466 137.795 284.139 137.251 283.731 136.073C283.356 134.992 283.916 133.828 284.495 132.843C285.405 131.293 286.403 129.795 287.483 128.359ZM368.409 71.8973C369.834 72.0099 371.682 72.9616 371.101 74.1676C370.094 74.9511 368.709 74.6875 367.351 74.4292C366.948 74.3524 366.546 74.2761 366.158 74.2279C364.507 74.0228 362.852 74.3896 361.204 74.7553C359.385 75.1587 357.572 75.5607 355.777 75.1909C355.291 74.8828 355.37 74.1479 355.781 73.7573C356.192 73.3666 356.802 73.2302 357.378 73.1111C361.006 72.3603 364.704 71.6048 368.409 71.8973ZM390.02 72.8953C392.482 73.1983 394.998 73.1378 397.439 72.7171C397.813 71.5734 396.066 70.9004 394.759 70.7741L388.625 70.1813C387.3 70.0532 385.872 69.9434 384.718 70.5472C383.564 71.1511 382.992 72.7768 383.983 73.5849C385.374 72.3084 387.622 72.5926 389.621 72.8453C389.755 72.8622 389.889 72.8791 390.02 72.8953ZM392.79 81.8714C392.705 82.1272 392.368 82.2165 392.08 82.2543C389.445 82.6011 386.67 81.9426 384.543 80.4655C384.037 80.1134 383.532 79.6584 383.477 79.0752C383.423 78.4921 384.105 77.8725 384.666 78.1463C387.603 79.5797 391.459 79.2134 394.017 77.258C394.624 76.7938 395.648 77.3573 395.731 78.0806C395.813 78.804 395.239 79.4673 394.565 79.8452C394.162 80.0713 393.72 80.2257 393.277 80.3803L393.277 80.3804C392.98 80.4842 392.683 80.5881 392.397 80.7138C392.275 81.1258 392.435 81.5971 392.79 81.8714ZM384.635 94.1269C386.673 92.6589 388.536 90.1859 387.655 87.8491C384.001 92.7529 377.645 95.5491 371.517 94.9494C370.47 94.8468 369.562 95.8557 369.469 96.8932C369.376 97.9306 369.896 98.93 370.539 99.7552C373.508 103.571 379.313 104.604 383.762 102.654C388.212 100.704 391.231 96.2296 392.102 91.4921C392.281 90.5233 392.358 89.4472 391.806 88.6277C391.254 87.8083 389.841 87.5478 389.299 88.3741C390.246 89.7225 390.216 91.5326 389.791 93.1193C388.906 96.4138 386.406 99.2435 383.224 100.551C380.043 101.858 376.252 101.612 373.269 99.906C372.791 99.6323 372.302 99.2843 372.136 98.7629C371.97 98.2414 372.326 97.546 372.878 97.5751C377.04 97.7939 381.266 96.5546 384.635 94.1269ZM370.946 79.2311C368.818 83.8623 362.779 84.9928 358.119 83.4445C356.782 83.0002 356.978 80.6962 358.172 79.9226C359.367 79.149 360.897 79.434 362.266 79.7534C363.636 80.0728 365.157 80.379 366.369 79.6364C366.844 79.3451 367.221 78.9192 367.598 78.4923C367.921 78.1271 368.244 77.7612 368.631 77.4784C369.469 76.8651 370.947 76.9356 371.181 77.9816C371.276 78.4032 371.125 78.8411 370.946 79.2311ZM374.018 77.8582L373.029 86.3205C372.954 86.9637 372.885 87.6451 373.163 88.2323C373.585 89.1244 374.748 89.5221 375.723 89.2864C376.697 89.0507 377.474 88.3048 377.977 87.4539C378.49 86.5862 378.163 84.9491 377.199 85.2858C376.941 85.376 376.757 85.6011 376.576 85.8219C376.358 86.0874 376.146 86.3467 375.817 86.3576C375.054 86.3828 375.066 85.2396 375.32 84.5341C376.376 81.5988 376.539 78.3607 375.783 75.3377C374.634 75.2979 374.148 76.739 374.018 77.8582ZM302.548 123.076C305.829 124.274 308.786 126.335 311.036 128.992C311.3 129.303 311.562 129.642 311.628 130.043C311.724 130.635 311.299 131.266 310.71 131.402C307.329 127.588 302.649 124.932 297.625 123.976C298.397 122.316 300.821 122.445 302.548 123.076ZM282.004 511.823C281.105 511.748 280.183 511.67 279.42 511.352C279.008 511.179 278.646 510.934 278.284 510.689C277.937 510.455 277.591 510.221 277.201 510.05C276.402 509.7 275.215 509.751 274.849 510.458C277.491 512.848 281.659 513.882 285.361 513.068C284.753 512.054 283.405 511.941 282.004 511.823ZM413.934 464.014L420.583 462.579C421.159 462.455 421.985 462.555 422.019 463.279C419.002 465.869 415.045 466.702 411.507 465.493C411.985 464.502 413.016 464.212 413.934 464.014ZM320.702 302.887C319.371 303.212 318.03 303.54 316.898 304.253C319.433 305.451 322.513 304.66 325.095 303.553C330.9 301.062 335.933 297.03 339.446 292.056C340.807 290.129 341.976 287.754 341.151 285.58C339.831 285.822 339.214 287.202 338.712 288.366C335.754 295.223 329.246 300.662 321.608 302.66C321.308 302.739 321.005 302.813 320.702 302.887ZM434.283 305.932C433.59 306.941 432.008 306.642 430.876 306.144C422.097 302.278 416.237 292.81 416.8 283.4C416.825 282.984 416.88 282.528 417.19 282.244C417.501 281.959 418.142 282.04 418.206 282.451C418.782 286.165 419.368 289.915 420.771 293.411C422.173 296.908 424.483 300.179 427.8 302.065C428.487 302.455 429.219 302.79 429.949 303.124C431.565 303.862 433.175 304.598 434.283 305.932ZM346.067 468.758C343.948 468.189 341.817 467.617 339.674 467.838C343.889 471.337 350.277 472.29 355.425 470.186C355.613 469.361 354.204 469.29 353.338 469.495C350.93 470.064 348.506 469.413 346.067 468.758ZM365.715 283.8C366.569 283.981 367.247 283.116 367.688 282.363C369.537 279.21 370.745 278.061 373.161 275.764L373.321 275.611C373.449 277.362 373.586 278.384 373.723 279.406C373.86 280.428 373.997 281.451 374.125 283.201C374.167 283.769 374.221 284.373 374.571 284.822C375.546 286.077 377.609 284.999 378.438 283.644C380.362 280.501 379.791 276.053 377.135 273.498C376.453 272.842 377.46 271.61 378.388 271.793C379.317 271.975 379.886 272.898 380.282 273.757C381.433 276.251 382.102 279.08 381.492 281.758C380.882 284.436 378.769 286.883 376.049 287.283C375.089 287.424 374.021 287.277 373.321 286.606C372.553 285.869 372.41 284.713 372.312 283.654L371.993 280.204C371.09 280.753 370.511 281.679 369.936 282.6C369.305 283.611 368.678 284.616 367.628 285.11C365.973 285.887 363.859 284.911 363.002 283.297C362.146 281.683 362.361 279.668 363.133 278.012C363.904 276.356 365.167 274.986 366.426 273.662C367.187 272.861 367.999 272.036 369.05 271.695C370.102 271.353 371.457 271.676 371.912 272.683C367.869 273.634 364.712 277.517 364.611 281.667C364.589 282.538 364.862 283.619 365.715 283.8ZM236.456 498.273C236.619 498.502 236.874 498.617 237.121 498.712C241.767 500.486 246.772 498.084 251.21 495.73C251.715 495.462 252.312 494.841 251.974 494.34C251.801 494.084 251.472 494.058 251.187 494.074C249.466 494.167 247.801 494.939 246.157 495.701C243.92 496.738 241.722 497.757 239.469 497.03C239.298 496.974 239.126 496.909 238.954 496.843C238.429 496.642 237.901 496.44 237.36 496.528C236.642 496.645 236.003 497.636 236.456 498.273Z" fill="#00160A"/>
<path fill-rule="evenodd" clip-rule="evenodd" d="M306.906 61.9127C307.382 64.926 309.154 67.7641 311.782 69.7232C312.868 70.5323 313.473 71.8212 313.354 73.0733C313.636 73.6798 312.347 73.7255 311.761 73.3242C308.332 70.9747 305.838 67.5753 304.807 63.8455C304.61 63.1335 304.487 62.3147 304.977 61.7243C305.468 61.134 306.791 61.1867 306.906 61.9127V61.9127Z" fill="#00160A"/>
<path fill-rule="evenodd" clip-rule="evenodd" d="M294.29 98.9035C296.43 97.5848 298.731 95.891 301.129 96.4825C294.3 104.238 283.395 106.274 273.652 104.551C272.841 104.407 271.941 104.176 271.499 103.421C271.058 102.666 271.623 101.349 272.411 101.605C279.639 103.946 287.728 102.948 294.29 98.9035V98.9035Z" fill="#00160A"/>
<circle cx="271" cy="132" r="4" fill="#FFB61D"/>
<circle cx="301" cy="145" r="4" fill="#FFB61D"/>
<circle cx="363.5" cy="93.5" r="2.5" fill="#FFB61D"/>
<circle cx="396.5" cy="91.5" r="2.5" fill="#FFB61D"/>
</svg>
