<svg width="634" height="425" viewBox="0 0 634 425" fill="none" xmlns="http://www.w3.org/2000/svg">
<path fill-rule="evenodd" clip-rule="evenodd" d="M268.454 115.197C266.846 112.949 262.799 110.815 259.256 110.99C255.713 111.166 252.376 112.63 249.196 114.188C251.625 115.958 254.356 117.32 257.238 118.198C258.15 118.476 260.214 119.294 264.667 117.455" fill="#E7EAEE"/>
<path fill-rule="evenodd" clip-rule="evenodd" d="M20.3558 359.571C-71 235.62 173.724 202.284 319.092 107.128C398.306 55.2757 434.536 -1.4466 503 0.0936755C642.966 3.24255 648.693 267.633 618.971 315.128C506.896 494.22 58.1684 410.874 20.3558 359.571Z" fill="#6C5CE7"/>
<path fill-rule="evenodd" clip-rule="evenodd" d="M310 191.69C340.529 191.69 371.591 194.576 398.991 208.268C402.22 209.882 405.947 212.881 404.782 216.336C404.345 217.633 403.276 218.594 402.214 219.443C389.799 229.361 373.297 231.881 357.588 233.662C351.484 234.355 345.373 234.988 339.251 235.501C290.68 239.568 241.495 235.998 193.991 224.955C191.195 224.305 187.937 223.198 187.16 220.398C186.216 216.993 189.631 214.084 192.655 212.321C216.055 198.68 242.796 190.985 269.775 190.128C264.974 190.876 333.64 191.867 310 191.69Z" fill="white"/>
<path fill-rule="evenodd" clip-rule="evenodd" d="M485.156 94.777C478.855 107.462 473.588 120.904 472.136 135.013C472.074 135.621 472.025 136.27 472.307 136.811C472.878 137.905 474.385 137.96 475.61 137.879C503.982 136.01 533.306 141.593 557.377 156.838C565.604 162.049 573.162 168.329 581.694 173.014C582.071 173.221 582.499 173.431 582.911 173.31C583.326 173.189 583.576 172.775 583.785 172.395C588.97 162.968 593.563 153.211 597.528 143.201C598.933 139.653 600.272 136.019 600.621 132.214C601.497 122.637 595.196 112.864 586.154 109.777C562.979 101.865 539.805 93.9539 516.63 86.0423C512.394 84.5962 508.101 83.1381 503.64 82.8152C499.179 82.4923 494.456 83.4261 491.016 86.3057C488.368 88.5219 486.696 91.6758 485.156 94.777Z" fill="white"/>
<path d="M399.96 395.95C399.914 398.34 405.645 400.114 407.396 398.482C409.147 396.85 409.355 394.198 409.447 391.809C410.696 359.621 410.945 328.411 410.282 296.205L494.862 318.091L491.083 403.6C490.967 406.023 494.722 406.925 496.552 405.328C498.382 403.73 498.682 401.048 498.851 398.629C500.593 373.72 500.901 348.698 502.273 323.807C503 310.619 519.968 310.619 536.458 294.357C544.669 286.26 551.675 275.088 551.675 275.088C552.979 305.33 555.495 335.649 553.226 365.835C553.054 368.129 556.61 369.06 558.366 367.568C560.051 366.135 560.4 363.732 560.576 361.512L560.597 361.235C562.933 329.637 565.633 262.017 569 217.724C570.275 200.953 573.886 184.886 576 175.353C576.933 171.146 574.012 171.218 568.167 168.593C565.774 167.518 560.425 175.399 558 197.765L557.878 198.943C557.003 207.841 556.238 224.635 555.585 249.326C554.527 254.984 548.152 256.292 536.458 253.249L536 253.129C524.015 249.932 505.631 244.096 480.848 235.621L480.677 233.284C477.976 195.748 478.896 169.515 483.436 154.587L483.578 154.129C490.714 131.404 478.8 140.799 477.446 142.614C468.382 154.768 466.43 170.3 466.488 184.303L466.661 226.4C466.66 230.796 466.45 235.384 464.042 239.028C461.975 242.156 458.592 244.108 455.282 245.904L414.372 268.028C410.601 270.081 406.848 272.257 403.88 275.339C400.615 278.729 398.393 283.453 399.148 288.093C399.651 291.186 400.915 293.595 402.94 295.318L402.2 316.97C401.072 350.693 400.326 377.02 399.96 395.95Z" fill="white"/>
<path d="M200.04 397.95C200.086 400.34 196.355 401.114 194.604 399.482C192.853 397.85 192.645 395.198 192.553 392.809C191.304 360.621 190.055 328.41 190.718 296.205C162.471 304.659 134.225 313.112 105.978 321.565C107.291 348.91 108.604 376.255 109.917 403.6C110.033 406.023 106.278 406.925 104.448 405.327C102.618 403.73 102.318 401.048 102.149 398.629C100.407 373.72 99.2656 348.77 98.7268 323.807C98.6597 320.697 96.1984 318.231 93.907 316.122C79.0462 302.444 64.1854 288.766 49.3245 275.088C48.0212 305.33 48.5053 335.649 50.7735 365.834C50.9459 368.129 47.39 369.06 45.6343 367.568C43.8786 366.076 43.5728 363.53 43.4031 361.235C39.7479 311.8 42.2266 262.065 38.5382 212.632C37.6516 200.75 36.3679 188.719 32 177.629C39.8208 175.812 131.182 157.012 123.442 145.128C133.873 154.5 134.57 170.3 134.512 184.303C134.455 198.043 134.398 211.784 134.341 225.524C134.322 230.18 134.389 235.141 136.958 239.028C139.108 242.281 142.681 244.262 146.115 246.119C159.242 253.218 172.37 260.316 185.498 267.415C189.64 269.655 193.855 271.949 197.12 275.339C200.385 278.729 202.607 283.453 201.852 288.093C201.098 292.733 196.688 296.846 192.017 296.221C196.966 297.274 196.488 296.158 198.06 295.317C198.72 329.528 199.38 363.739 200.04 397.95Z" fill="white"/>
<path d="M38.0797 186.371C36.7198 182.259 35.3599 178.146 34 174.034C35.8943 174.506 103.367 150.672 115.777 147.069C116.99 146.716 117.677 146.557 117.725 146.633C125.871 159.516 126.06 175.696 125.992 190.935C125.929 205.087 125.866 219.239 125.803 233.391C125.79 236.509 125.161 240.464 122.136 241.225C104.235 245.729 86.5887 251.241 69.3077 257.726C64.2115 259.639 58.8834 261.671 53.4819 260.996C50.6425 260.64 47.955 259.549 45.3057 258.468C43.5867 257.767 41.5756 256.655 41.5805 254.8C41.6207 239.634 41.661 224.468 41.7012 209.302C41.7118 205.282 41.7208 201.239 41.0664 197.273C40.4525 193.551 39.2639 189.953 38.0797 186.371Z" fill="white"/>
<path fill-rule="evenodd" clip-rule="evenodd" d="M5.0057 144.083L14.1413 167.735C15.0203 170.011 15.9986 172.418 17.9911 173.836C21.3194 176.204 25.9194 174.874 29.7235 173.376C37.4632 170.329 45.0545 166.925 52.6455 163.522C60.8932 159.825 69.1405 156.127 77.5774 152.887C93.7794 146.664 110.968 142.111 128.315 142.895C131.085 143.02 133.362 140.408 133.853 137.692C134.344 134.975 133.513 132.213 132.69 129.577L126.487 109.701C124.374 102.929 122.154 95.96 117.569 90.5339C112.984 85.1077 105.378 81.565 98.6249 83.8165L16.8943 111.064C7.27264 114.272 0.74009 124.847 2.20525 134.843C2.67285 138.034 3.8434 141.074 5.0057 144.083ZM112.878 88.4662C119.547 94.2531 122.709 102.978 125.465 111.348C127.826 118.518 130.085 125.731 131.802 133.081C132.182 134.703 132.534 136.402 132.132 138.019C131.73 139.635 130.34 141.134 128.668 141.099C112.217 140.753 95.9166 144.574 80.4047 150.037C69.0446 154.038 58.0296 158.916 47.015 163.795L47.0142 163.795L47.0134 163.796L47.0126 163.796L47.0118 163.796L47.011 163.797L47.0102 163.797L47.0094 163.797L47.0086 163.798L47.0078 163.798L47.007 163.798L47.0062 163.799L47.0054 163.799L47.0046 163.799L47.0038 163.8L47.003 163.8L47.0022 163.8L47.0014 163.801L47.0006 163.801L46.9998 163.801L46.999 163.802C42.9788 165.582 38.9587 167.363 34.9218 169.101C31.6664 170.502 28.358 171.888 24.8543 172.436C22.0264 172.878 18.3741 172.226 17.6182 169.477C16.301 164.687 14.3406 160.116 12.3789 155.542L12.3788 155.542C11.088 152.532 9.79653 149.521 8.68737 146.445C5.89258 138.694 4.28697 130.071 6.94746 122.274C7.77177 119.858 9.03909 117.52 11.0136 115.893C12.7638 114.452 14.9485 113.659 17.087 112.896C43.4804 103.481 70.0573 94.5764 96.7975 86.1879C99.7203 85.271 102.773 84.3493 105.801 84.8223C108.46 85.2377 110.849 86.7055 112.878 88.4662ZM34 174.034L38.0797 186.372C39.2639 189.953 40.4525 193.552 41.0664 197.273C41.7208 201.24 41.7118 205.282 41.7012 209.303L41.5805 254.8C41.5756 256.656 43.5867 257.767 45.3057 258.468C47.955 259.549 50.6425 260.64 53.4819 260.996C58.8188 261.664 64.0839 259.687 69.1245 257.795L69.1246 257.795L69.3077 257.727C86.5887 251.241 104.235 245.729 122.136 241.225C125.161 240.464 125.79 236.509 125.803 233.392L125.992 190.935C126.06 175.696 125.871 159.516 117.725 146.634C117.185 145.78 116.271 144.831 115.337 145.217C119.86 153.1 122.688 161.948 123.577 170.992C123.986 175.152 123.989 179.34 123.992 183.521L124.025 233.464C124.027 235.981 123.539 239.175 121.101 239.809C105.623 243.836 90.1018 247.877 75.2085 253.705C74.6217 253.934 74.0327 254.167 73.4416 254.401C66.0334 257.328 58.3025 260.383 50.5348 258.952C46.8783 258.278 42.8797 255.797 42.9525 252.082L43.5107 223.581C43.8083 208.386 44.0113 192.669 38.1075 178.663C37.2756 176.689 36.0795 174.553 34 174.034ZM129 247.232C109.657 250.473 90.6681 255.703 72.4507 262.806C69.4655 263.97 66.5012 265.184 63.5371 266.398L59.3129 268.128C58.3541 267.186 59.7912 265.762 61.0306 265.209C81.542 256.068 103.339 249.66 125.623 246.219C126.891 246.023 128.568 246.056 129 247.232ZM101.059 113C100.842 114.039 101.243 115.139 101.912 115.951C102.641 116.835 103.883 117.446 104.904 116.952C106.329 116.263 106.226 114.066 105.383 112.7C104.898 111.912 104.16 111.189 103.254 111.132C102.22 111.067 101.277 111.961 101.059 113ZM104.1 115.46C103.363 115.79 102.405 115.066 102.494 114.246C102.584 113.427 103.675 112.938 104.322 113.427C104.969 113.917 104.836 115.13 104.1 115.46ZM58.9129 129.095C57.8281 127.855 57.5989 125.589 58.8362 124.532C59.0754 124.328 59.3593 124.178 59.661 124.139C60.3459 124.05 60.9788 124.528 61.4906 125.033C62.6267 126.152 63.5602 128.097 62.6033 129.401C61.7293 130.592 59.8784 130.199 58.9129 129.095ZM60.8911 126.36C60.6308 126.09 60.3166 125.8 59.9613 125.855C59.2799 125.961 59.2953 127.069 59.6263 127.728C59.9994 128.47 60.911 129.158 61.478 128.58C62.0601 127.988 61.4686 126.958 60.8911 126.36ZM38.6439 133.485C38.0272 133.997 37.9508 134.877 38.0218 135.652C38.1048 136.559 38.3449 137.487 38.95 138.192C39.5551 138.898 40.5917 139.324 41.5012 139.039C42.377 138.763 42.9401 137.885 42.9947 137.01C43.0494 136.135 42.672 135.279 42.1467 134.559C41.3558 133.475 39.6896 132.617 38.6439 133.485ZM39.8347 134.876C40.3715 134.514 41.329 135.119 40.9873 135.653L41.2643 136.205C41.9557 136.286 41.8246 137.45 41.1465 137.601C40.4684 137.752 39.8216 137.197 39.549 136.588C39.2915 136.012 39.2979 135.238 39.8347 134.876ZM77.5671 102.192C78.2677 102.318 78.9803 102.557 79.4762 103.066C79.972 103.576 80.1836 104.411 79.8096 105.015C79.4864 105.536 78.8442 105.753 78.2465 105.898C77.3716 106.11 76.4396 106.249 75.5805 105.98C74.7215 105.711 73.9672 104.929 74.0011 104.032C74.0584 102.516 76.0693 101.921 77.5671 102.192ZM76.9906 103.722C76.3732 103.377 75.4749 103.767 75.3079 104.453C76.345 105.076 77.7468 105.034 78.7447 104.35C78.5352 103.709 77.6708 103.384 77.0886 103.728L76.9906 103.722ZM197.04 395.95L195.06 293.317C193.488 294.158 193.325 296.303 193.363 298.082L195.501 397.644C192.615 397.842 191.496 394.002 191.375 391.119C190.014 358.837 189.228 326.531 189.017 294.221C193.688 294.846 198.098 290.733 198.852 286.093C199.607 281.453 197.385 276.729 194.12 273.339C190.855 269.949 186.64 267.655 182.498 265.415L143.115 244.119C139.681 242.262 136.108 240.281 133.958 237.028C131.389 233.141 131.322 228.18 131.341 223.524L131.512 182.303C131.57 168.3 130.873 152.5 120.442 143.128C128.182 155.012 130.186 169.725 130.241 183.896C130.262 189.238 130.035 194.582 129.807 199.925L129.807 199.927L129.807 199.928C129.432 208.759 129.056 217.586 129.801 226.383C130.154 230.549 130.82 234.862 133.184 238.314C135.087 241.093 137.93 243.075 140.782 244.871C147.548 249.133 154.747 252.723 161.935 256.309C173.208 261.931 184.455 267.541 193.966 275.704C196.368 277.766 198.156 282.452 195.097 283.28C164.597 291.537 134.474 301.178 104.851 312.162C102.559 313.012 100.196 311.246 98.3887 309.602L50.8295 266.346C49.1135 264.785 46.131 265.812 44.8878 267.768C43.6446 269.725 43.6436 272.191 43.6827 274.507L45.2221 365.707C42.0035 362.608 41.5549 357.701 41.3388 353.244C40.322 332.274 40.0844 311.268 39.8468 290.266C39.5034 259.904 39.16 229.549 36.4629 199.318C35.7144 190.929 34.5445 181.981 29 175.629C33.3679 186.719 34.6516 198.75 35.5382 210.632C37.3874 235.415 37.6864 260.274 37.9855 285.134V285.134C38.283 309.859 38.5804 334.585 40.4031 359.235C40.5728 361.53 40.8786 364.076 42.6343 365.568C44.39 367.06 47.9459 366.129 47.7735 363.834C45.5053 333.649 45.0212 303.33 46.3245 273.088L90.907 314.122C93.1984 316.231 95.6597 318.697 95.7268 321.807C96.2656 346.77 97.4068 371.72 99.1492 396.629C99.3184 399.048 99.6183 401.73 101.448 403.327C103.278 404.925 107.033 404.023 106.917 401.6L102.978 319.565L187.718 294.205C187.055 326.41 188.304 358.621 189.553 390.809C189.645 393.198 189.853 395.85 191.604 397.482C193.355 399.114 197.086 398.34 197.04 395.95ZM95.6136 316.821L47.334 270.984C46.5098 270.202 45.6183 269.039 46.1885 268.057C46.9502 266.744 48.9606 267.666 50.0856 268.685L101.348 315.143C132.637 303.964 164.313 293.863 196.3 284.864C197.174 286.062 196.686 287.848 195.622 288.882C194.559 289.916 193.081 290.382 191.66 290.815L104.448 317.409C103.35 317.744 102.155 318.152 101.563 319.133C101.098 319.905 101.116 320.863 101.149 321.763C101.514 331.483 102.133 341.196 102.752 350.908C103.879 368.594 105.006 386.275 104.596 403.982C99.3334 394.752 99.0075 383.627 98.8148 373.01L97.9413 324.875C97.8891 322.002 97.7001 318.802 95.6136 316.821ZM35.2311 121.829C34.8839 122.049 34.4651 122.126 34.0563 122.128C32.8213 122.136 31.5531 121.399 31.1302 120.219C30.7073 119.039 31.3499 117.514 32.5442 117.195C33.4622 116.949 34.4438 117.415 35.113 118.1C36.1046 119.115 36.4256 121.074 35.2311 121.829ZM33.5321 118.665C32.7516 118.474 32.2468 119.733 32.7815 120.343C33.3161 120.952 34.3008 120.891 35.0071 120.502L33.5554 118.694L33.5321 118.665ZM116.529 102.179L114.641 100.73C114.265 100.442 113.86 100.142 113.401 100.129C112.629 100.106 112.011 100.964 112 101.805C111.989 102.647 112.442 103.421 112.995 104.007C113.772 104.831 114.923 105.402 115.94 104.992C116.956 104.582 117.415 102.859 116.529 102.179ZM113.19 102.211C113.384 101.741 114.102 101.702 114.338 102.147L114.439 102.239C115.204 102.324 115.813 103.198 115.684 104.024C114.677 103.811 113.758 103.142 113.19 102.211ZM83.3867 136.278C83.0868 135.706 82.8894 135.027 83.0677 134.402C83.4339 133.118 85.1519 132.835 86.3035 133.417C87.7801 134.163 88.6334 136.464 87.4268 137.627C86.2271 138.783 84.1719 137.775 83.3867 136.278ZM85.153 136.319L86.2831 136.842C86.817 136.373 86.7531 135.354 86.1651 134.962C85.5772 134.57 84.6703 134.94 84.4905 135.646L85.1524 136.318L85.153 136.319ZM86.8369 121.921C87.3017 120.86 86.7202 119.624 85.7636 118.85C85.2045 118.397 84.458 118.049 83.7016 118.144C82.6002 118.284 81.9004 119.359 82.0116 120.32C82.1227 121.281 82.8429 122.11 83.6576 122.768C84.615 123.542 86.3721 122.982 86.8369 121.921ZM84.6375 119.629C85.0548 119.838 85.2834 120.241 85.4599 120.63L85.4056 120.799C86.0432 120.986 85.512 121.956 84.846 121.872C84.18 121.788 83.7973 121.183 83.5429 120.642C83.4342 120.411 83.3287 120.154 83.4198 119.917C83.5723 119.521 84.2202 119.42 84.6375 119.629ZM105.508 134.544C104.981 133.702 104.757 132.504 105.365 131.725C106.306 130.518 108.207 131.332 109.201 132.49C109.586 132.939 109.941 133.463 109.994 134.065C110.088 135.145 109.084 136.099 108.055 136.128C107.026 136.156 106.075 135.449 105.508 134.544ZM107.972 133.34L106.986 132.629C106.583 133.016 106.505 133.724 106.813 134.198C107.122 134.672 107.777 134.851 108.265 134.594C108.604 134.24 108.414 133.519 107.951 133.399L107.972 133.34ZM96.2704 95.6734C96.0017 96.0384 95.9767 96.5064 96.0133 96.944C96.1009 97.9904 96.541 99.071 97.4738 99.6925C98.4065 100.314 99.8899 100.298 100.602 99.4703C101.517 98.4062 100.715 96.8112 99.5994 95.9176C98.6512 95.1582 96.9728 94.7194 96.2704 95.6734ZM97.8417 96.7923C98.3075 96.4671 99.1716 96.891 98.9833 97.3959L99.2898 97.4773C99.5468 97.961 99.5385 98.5537 99.2681 99.0314C98.7102 98.8634 98.133 98.6509 97.7735 98.2292C97.414 97.8075 97.3759 97.1174 97.8417 96.7923ZM15.2416 122.907C15.9205 121.853 17.6069 121.974 18.6858 122.648C19.7259 123.297 20.4885 124.788 19.6263 125.647C19.1884 126.083 18.494 126.165 17.8672 126.116C17.0221 126.05 16.159 125.773 15.5818 125.172C15.0046 124.571 14.7933 123.603 15.2416 122.907ZM17.5182 123.487L16.446 124.002C16.8635 124.688 17.789 125.04 18.5772 124.812C18.6877 124.239 18.1824 123.63 17.58 123.611L17.5182 123.487ZM52.9136 111.689C53.8371 112.333 55.1156 112.22 56.0942 111.669C56.464 111.461 56.823 111.169 56.9503 110.756C57.1897 109.978 56.5216 109.225 55.8519 108.79C54.8016 108.107 53.2708 107.766 52.4229 108.701C51.6617 109.54 51.9902 111.045 52.9136 111.689ZM53.3044 110.065C53.253 109.601 53.8946 109.195 54.1971 109.543L54.2554 109.432C54.7945 109.423 55.3249 109.761 55.5562 110.262C55.1725 110.511 54.7669 110.768 54.3139 110.795C53.861 110.821 53.3557 110.529 53.3044 110.065ZM44.8409 150.463C45.7704 149.809 47.2382 150.153 47.7807 151.152C48.3232 152.151 47.8129 153.571 46.7586 153.995C45.8485 154.361 44.6958 153.946 44.2274 153.084C43.7591 152.221 44.0385 151.028 44.8409 150.463ZM46.6263 152.832C46.8458 152.083 46.1346 151.225 45.3576 151.302C45.15 152.068 45.7953 152.942 46.5882 152.968L46.6263 152.832ZM28.5169 157.384C28.0699 157.762 27.9703 158.472 28.0069 159.099C28.1081 160.83 29.5959 162.694 30.9974 161.967C31.8028 161.549 32.1658 160.385 31.9283 159.424C31.6907 158.463 30.9637 157.726 30.144 157.345C29.6189 157.1 28.971 157 28.5169 157.384ZM30.2261 158.96C30.704 159.097 30.9247 159.861 30.6096 160.288L30.9407 160.72C30.2958 160.831 29.4501 160.639 29.3242 159.919C29.2291 159.375 29.7483 158.823 30.2261 158.96ZM25.5223 145.456C25.3208 145.68 25.0683 145.859 24.7892 145.975C24.2922 146.181 23.7119 146.18 23.2157 145.972C22.1665 145.532 21.676 144.116 22.231 143.129C22.786 142.142 24.2577 141.813 25.1852 142.469C26.1126 143.125 26.2806 144.613 25.5223 145.456ZM24.4784 145.215C25.1304 144.733 24.6903 143.469 23.8778 143.489C23.5155 143.707 23.2419 144.066 23.1289 144.472C23.5016 144.817 23.9664 145.063 24.4627 145.178L24.4784 145.215ZM124.959 129.33C124.701 128.434 124.274 127.387 123.237 127.164C122.123 126.925 121.065 127.92 121.003 128.908C120.941 129.905 121.737 130.951 122.879 131.111C124.02 131.271 125.239 130.298 124.959 129.33ZM123.334 129.027C123.667 129.41 123.208 130.064 122.66 129.988L122.724 129.799C122.367 129.72 122.183 129.3 122.391 129.037C122.598 128.774 123.119 128.769 123.334 129.027ZM117.036 114.591C116.77 113.311 118.028 111.965 119.32 112.145C120.796 112.35 121.551 114.483 120.533 115.573C119.516 116.662 117.339 116.051 117.036 114.591ZM118.823 115.175C119.388 115.307 120.017 114.785 119.957 114.207C119.898 113.629 119.127 113.253 118.654 113.589C118.18 113.925 118.317 114.815 118.878 114.964L118.823 115.175ZM68.9192 140.547C68.7887 140.094 68.5057 139.692 68.1313 139.425C66.8777 138.533 64.8512 139.791 65.0087 141.363C65.1661 142.936 67.3981 143.731 68.448 142.589C68.9352 142.059 69.122 141.249 68.9192 140.547ZM66.405 141.58C66.2782 141.1 66.7766 140.574 67.2399 140.7C67.7031 140.826 67.8908 141.538 67.5543 141.893C67.2178 142.248 66.5317 142.061 66.405 141.58Z" fill="#00160A"/>
</svg>
